HIERARCHY
ROOT hip
{
	OFFSET 0.000000 0.000000 0.000000 
	CHANNELS 6 Xposition Yposition Zposition Xrotation Zrotation Yrotation
	JOINT abdomen
	{
		OFFSET 0.000000 3.402643 0.000000 
		CHANNELS 3 Xrotation Zrotation Yrotation
		JOINT chest
		{
			OFFSET 0.000000 8.438565 -0.680529 
			CHANNELS 3 Xrotation Zrotation Yrotation
			JOINT neck
			{
				OFFSET 0.000000 10.207942 -0.272212 
				CHANNELS 3 Xrotation Zrotation Yrotation
				JOINT head
				{
					OFFSET 0.000000 3.130431 0.000000 
					CHANNELS 3 Xrotation Zrotation Yrotation
					End Site
					{
						OFFSET 0.000000 3.130435 0.000000 
					}
				}
			}
			JOINT lCollar
			{
				OFFSET 3.470700 6.669187 -0.816635 
				CHANNELS 3 Yrotation Zrotation Xrotation
				JOINT lShldr
				{
					OFFSET 3.198488 0.000000 0.000000 
					CHANNELS 3 Zrotation Yrotation Xrotation
					JOINT lForeArm
					{
						OFFSET 10.139888 0.000000 0.000000 
						CHANNELS 3 Yrotation Zrotation Xrotation
						JOINT lHand
						{
							OFFSET 8.370511 0.000000 0.000000 
							CHANNELS 3 Zrotation Yrotation Xrotation
							End Site
							{
								OFFSET 4.083176 0.000000 0.000000 
							}
						}
					}
				}
			}
			JOINT rCollar
			{
				OFFSET -3.470700 6.669187 -0.816635 
				CHANNELS 3 Yrotation Zrotation Xrotation
				JOINT rShldr
				{
					OFFSET -3.198488 0.000000 0.000000 
					CHANNELS 3 Zrotation Yrotation Xrotation
					JOINT rForeArm
					{
						OFFSET -10.139888 0.000000 0.000000 
						CHANNELS 3 Yrotation Zrotation Xrotation
						JOINT rHand
						{
							OFFSET -8.370511 0.000000 0.000000 
							CHANNELS 3 Zrotation Yrotation Xrotation
							End Site
							{
								OFFSET -4.083176 0.000000 0.000000 
							}
						}
					}
				}
			}
		}
	}
	JOINT lThigh
	{
		OFFSET 5.308129 -1.633274 1.361059 
		CHANNELS 3 Xrotation Zrotation Yrotation
		JOINT lShin
		{
			OFFSET -2.041588 -20.007561 0.000000 
			CHANNELS 3 Xrotation Zrotation Yrotation
			JOINT lFoot
			{
				OFFSET 0.000000 -19.190928 -1.224953 
				CHANNELS 3 Xrotation Yrotation Zrotation
				End Site
				{
					OFFSET 0.000000 -2.449906 4.627600 
				}
			}
		}
	}
	JOINT rThigh
	{
		OFFSET -5.308129 -1.633274 1.361059 
		CHANNELS 3 Xrotation Zrotation Yrotation
		JOINT rShin
		{
			OFFSET 2.041588 -20.007561 0.000000 
			CHANNELS 3 Xrotation Zrotation Yrotation
			JOINT rFoot
			{
				OFFSET 0.000000 -19.190928 -1.224953 
				CHANNELS 3 Xrotation Yrotation Zrotation
				End Site
				{
					OFFSET 0.000000 -2.449906 4.627600 
				}
			}
		}
	}
}
MOTION
Frames: 6
Frame Time: 0.016667
-1.755954 52.919582 0.194710 6.198685 -5.320455 -8.965916 -5.530675 0.843804 0.950050 0.509298 -0.758615 0.508233 8.327678 7.909946 -3.923974 19.998919 11.043312 -9.029081 -0.966184 -2.090659 -0.113862 -91.145317 -0.643776 -41.377453 -71.791824 -0.817454 24.427822 1.386217 -3.328434 -72.718880 0.956406 2.080914 -0.113715 88.288681 6.119017 -13.818874 26.075228 1.118670 -0.855984 -1.599988 3.326689 23.577703 -15.058536 2.851966 6.027058 27.748478 5.980782 3.383800 -8.596354 16.998909 0.561626 -6.044384 11.063965 4.812913 20.836468 -5.814395 -2.866598 -16.647188 -12.720279 -1.694603 
-1.929356 52.891674 0.027339 6.162568 -5.621833 -8.770989 -5.354337 0.964848 0.796050 0.666530 -0.973235 0.441925 8.123036 8.002912 -3.927611 19.960276 11.073539 -8.991839 -0.966184 -2.090659 -0.113862 -90.859940 -0.914367 -41.224468 -71.896378 -0.820677 24.427437 1.395627 -3.331112 -72.651085 0.956406 2.080914 -0.113715 88.223122 6.358725 -14.129269 25.909187 1.112508 -0.853246 -1.590003 3.326609 23.392731 -15.570029 3.474473 6.239130 28.561007 5.979805 3.463442 -8.348186 16.280016 0.363052 -6.044036 11.513744 4.631466 20.706947 -5.773797 -2.897508 -16.504610 -12.664777 -1.657779 
-2.092856 52.873775 -0.137006 6.165744 -5.913107 -8.567951 -5.324724 1.099702 0.656164 0.618512 -1.123247 0.378665 8.007504 8.080296 -3.886605 19.942272 11.122168 -8.945225 -0.966184 -2.090659 -0.113862 -90.665771 -0.991597 -41.010902 -71.979210 -0.824353 24.429689 1.395676 -3.330953 -72.602264 0.956406 2.080914 -0.113715 88.168152 6.576684 -14.942320 25.450363 1.119747 -0.857506 -1.600202 3.326783 23.773012 -16.113903 4.088171 6.515578 29.381216 5.974770 3.493634 -8.445452 15.538304 0.230117 -6.140315 11.918601 4.316010 20.595333 -5.773743 -2.895537 -16.296515 -12.583566 -1.595902 
-2.243828 52.858936 -0.292926 6.167506 -6.068453 -8.379580 -5.305097 1.211405 0.563986 0.580129 -1.235820 0.336324 7.994880 8.152449 -3.864228 19.954109 11.169662 -8.914377 -0.966184 -2.090659 -0.113862 -90.506966 -1.103447 -40.700317 -71.961563 -0.819318 24.420124 1.395746 -3.330731 -72.533897 0.956406 2.080914 -0.113715 88.099251 6.730791 -15.871862 24.923119 1.119249 -0.858213 -1.600746 3.327025 24.271061 -16.689499 4.609495 6.833620 30.120260 5.932914 3.581822 -8.484202 14.622934 0.135417 -6.275769 12.208780 3.943950 20.566042 -5.734694 -2.908280 -16.169205 -12.416878 -1.531483 
-2.386909 52.845867 -0.434028 6.128671 -6.107738 -8.252647 -5.305171 1.322058 0.508015 0.551006 -1.264098 0.309104 8.065600 8.189840 -3.866301 19.994656 11.187289 -8.922555 -0.966184 -2.090659 -0.113862 -90.409271 -1.220489 -40.321381 -71.874649 -0.821126 24.430021 1.395806 -3.330540 -72.475311 0.956406 2.080914 -0.113715 87.970932 6.803053 -16.789324 24.298338 1.129168 -0.863927 -1.597152 3.336122 24.730045 -17.017443 5.007895 7.306731 30.631462 5.925958 3.635742 -8.672287 13.706442 0.092811 -6.444470 12.361614 3.672423 20.691288 -5.723000 -2.917840 -16.132629 -12.304472 -1.463919 
-2.527317 52.831619 -0.558971 6.039193 -6.011620 -8.213537 -5.334717 1.404130 0.517859 0.433437 -1.208646 0.318451 8.280156 8.164016 -3.872369 20.063522 11.165467 -8.942400 -0.966184 -2.090659 -0.113862 -90.334129 -1.295241 -39.804867 -71.748505 -0.821400 24.423471 1.395877 -3.330318 -72.406944 0.956406 2.080914 -0.113715 87.834518 6.822252 -17.793936 23.507521 1.132854 -0.867106 -1.597633 3.336346 25.247618 -17.268255 5.328726 7.840092 31.163687 5.910356 3.688327 -9.073046 12.859071 0.071427 -6.590984 12.412059 3.568534 20.970541 -5.706408 -2.948007 -16.212770 -12.281364 -1.451471 
